<svg width="90" height="30" xmlns="http://www.w3.org/2000/svg" version="1.1">

 <g>
  <title>Layer 1</title>
  <path id="svg_1" d="m0.88197,29.53518l0,-28.55469l6.05469,0l0,23.55469l11.58203,0l0,5l-17.63672,0zm42.82754,0l-2.07031,-6.79688l-10.41016,0l-2.07031,6.79688l-6.52344,0l10.07813,-28.67188l7.40234,0l10.11719,28.67188l-6.52344,0zm-3.51563,-11.875q-2.87109,-9.23829 -3.23242,-10.44922t-0.51758,-1.91407q-0.64453,2.5 -3.6914,12.36329l7.4414,0zm16.38223,11.875l0,-28.55469l6.05469,0l0,28.55469l-6.05469,0zm32.43691,0l-16.44531,0l0,-28.55469l16.44531,0l0,4.96094l-10.39062,0l0,6.26953l9.66797,0l0,4.96093l-9.66797,0l0,7.36329l10.39062,0l0,5z" fill="#"/>
  <path id="svg_2" fill="#"/>
 </g>
</svg>